<svg width="156" height="166" viewBox="0 0 156 166" fill="none" xmlns="http://www.w3.org/2000/svg">
<path opacity="0.1" d="M63.1955 90.245L85.5263 77.5663M63.1955 90.245V165M63.1955 90.245L1 53.1968M85.5263 77.5663L35.5714 49.3152M85.5263 77.5663V137.173M99.7519 69.992L121.09 57.4779M99.7519 69.992V145.57M99.7519 69.992L35.5714 33.1084M121.09 57.4779L71.797 28.7488M121.09 57.4779V116.59M134.82 50.0683L155 37.8835M134.82 50.0683V124.988M134.82 50.0683L71.797 12.8554M155 37.8835V113.791L134.82 124.988M155 37.8835L91.812 1L71.797 12.8554M63.1955 165L85.5263 153.639V137.173M63.1955 165L1 129.269V53.1968M99.7519 145.57L121.09 133.55V116.59M99.7519 145.57L85.5263 137.173M134.82 124.988L121.09 116.59M1 53.1968L21.1805 41.1767L35.5714 49.3152M35.5714 33.1084L57.2406 20.2651L71.797 28.7488M35.5714 33.1084V49.3152M71.797 12.8554V28.7488" stroke="black"/>
</svg>
