<svg width="17" height="16" viewBox="0 0 17 16" fill="none" xmlns="http://www.w3.org/2000/svg">
<path d="M12.8191 3.07108C12.6359 3.07108 12.4568 3.1254 12.3045 3.22718C12.1522 3.32896 12.0334 3.47362 11.9633 3.64286C11.8932 3.81212 11.8749 3.99836 11.9106 4.17803C11.9463 4.3577 12.0345 4.52275 12.1641 4.65229C12.2937 4.78182 12.4587 4.87004 12.6384 4.90578C12.818 4.94152 13.0043 4.92318 13.1735 4.85307C13.3428 4.78296 13.4874 4.66425 13.5892 4.51192C13.691 4.35961 13.7453 4.18052 13.7453 3.99733C13.7453 3.75167 13.6478 3.51608 13.474 3.34237C13.3003 3.16866 13.0647 3.07108 12.8191 3.07108ZM16.3697 4.93902C16.3547 4.29859 16.2348 3.66496 16.0146 3.06336C15.8184 2.54862 15.5129 2.08252 15.1193 1.69714C14.737 1.3015 14.2699 0.997956 13.753 0.809484C13.153 0.582678 12.5187 0.459987 11.8774 0.446703C11.0592 0.400391 10.7968 0.400391 8.69727 0.400391C6.59777 0.400391 6.33533 0.400391 5.51714 0.446703C4.87583 0.459987 4.2415 0.582678 3.64148 0.809484C3.12563 0.99987 2.65884 1.30314 2.27527 1.69714C1.87962 2.07935 1.57608 2.54654 1.38761 3.06336C1.1608 3.66337 1.03811 4.2977 1.02483 4.93902C0.978516 5.7572 0.978516 6.01964 0.978516 8.11914C0.978516 10.2186 0.978516 10.4811 1.02483 11.2993C1.03811 11.9405 1.1608 12.5749 1.38761 13.1749C1.57608 13.6918 1.87962 14.1589 2.27527 14.5411C2.65884 14.9351 3.12563 15.2384 3.64148 15.4288C4.2415 15.6556 4.87583 15.7783 5.51714 15.7916C6.33533 15.8379 6.59777 15.8379 8.69727 15.8379C10.7968 15.8379 11.0592 15.8379 11.8774 15.7916C12.5187 15.7783 13.153 15.6556 13.753 15.4288C14.2699 15.2404 14.737 14.9368 15.1193 14.5411C15.5147 14.1572 15.8204 13.6906 16.0146 13.1749C16.2348 12.5733 16.3547 11.9397 16.3697 11.2993C16.3697 10.4811 16.416 10.2186 16.416 8.11914C16.416 6.01964 16.416 5.7572 16.3697 4.93902ZM14.9803 11.2066C14.9747 11.6966 14.886 12.1821 14.7179 12.6423C14.5946 12.9782 14.3967 13.2817 14.139 13.53C13.8886 13.7851 13.5857 13.9826 13.2513 14.1089C12.7911 14.277 12.3056 14.3657 11.8156 14.3713C11.0438 14.4099 10.7582 14.4176 8.72814 14.4176C6.69811 14.4176 6.41252 14.4176 5.64064 14.3713C5.13189 14.3809 4.62532 14.3025 4.1432 14.1398C3.82348 14.0071 3.53447 13.81 3.29414 13.5609C3.03795 13.3129 2.84247 13.0091 2.72295 12.6732C2.5345 12.2064 2.42998 11.7099 2.4142 11.2066C2.4142 10.4348 2.36789 10.1492 2.36789 8.11914C2.36789 6.08911 2.36789 5.80352 2.4142 5.03164C2.41766 4.53074 2.5091 4.03434 2.68436 3.56508C2.82025 3.23927 3.02882 2.94885 3.29414 2.71602C3.52865 2.45062 3.81847 2.23984 4.1432 2.09852C4.6137 1.92873 5.10959 1.84 5.60977 1.83608C6.38164 1.83608 6.66723 1.78977 8.69727 1.78977C10.7273 1.78977 11.0129 1.78977 11.7848 1.83608C12.2748 1.8417 12.7602 1.93043 13.2205 2.09852C13.5712 2.2287 13.886 2.44034 14.139 2.71602C14.392 2.95312 14.5896 3.243 14.7179 3.56508C14.8895 4.0351 14.9783 4.53129 14.9803 5.03164C15.0189 5.80352 15.0266 6.08911 15.0266 8.11914C15.0266 10.1492 15.0189 10.4348 14.9803 11.2066ZM8.69727 4.15942C7.91444 4.16095 7.14963 4.39447 6.49947 4.8305C5.84931 5.26653 5.34299 5.88549 5.04448 6.60916C4.74596 7.33284 4.66863 8.12876 4.8223 8.89637C4.97595 9.66396 5.35369 10.3688 5.90777 10.9218C6.46185 11.4748 7.16742 11.8512 7.93531 12.0033C8.70321 12.1555 9.49899 12.0766 10.2221 11.7767C10.9452 11.4768 11.5632 10.9692 11.9979 10.3183C12.4326 9.66723 12.6647 8.90197 12.6647 8.11914C12.6657 7.59821 12.5637 7.08221 12.3646 6.60083C12.1656 6.11945 11.8732 5.68219 11.5045 5.31419C11.1358 4.94619 10.6979 4.65472 10.2162 4.45654C9.73439 4.25837 9.2182 4.15738 8.69727 4.15942ZM8.69727 10.6895C8.1889 10.6895 7.69196 10.5387 7.26926 10.2563C6.84657 9.97387 6.51712 9.57244 6.32258 9.10277C6.12803 8.6331 6.07713 8.11629 6.17631 7.61769C6.27549 7.11909 6.52029 6.6611 6.87976 6.30163C7.23922 5.94217 7.69721 5.69737 8.19582 5.59819C8.69442 5.49901 9.21122 5.54991 9.68089 5.74445C10.1506 5.93899 10.552 6.26844 10.8344 6.69113C11.1168 7.11383 11.2676 7.61077 11.2676 8.11914C11.2676 8.45669 11.2011 8.79092 11.072 9.10277C10.9428 9.41462 10.7534 9.69798 10.5148 9.93665C10.2761 10.1753 9.99274 10.3647 9.68089 10.4938C9.36904 10.623 9.03481 10.6895 8.69727 10.6895Z" fill="white"/>
</svg>
